# xmcd CD database file
# Copyright (C) 1993-1998 Ti Kan
# 
# Track frame offsets:
#     150
#     14240
#     29482
#     43100
#     57362
#     78212
#     91917
#     102085
#     115550
#     131540
#     145707
#     162265
#     176882
#     192692
#     206820
#     219700
#     235012
#     251112
#     263705
# 
# Disc length: 3755 seconds
# 
# Revision: 1
# Processed by: cddbd v1.4b41PL1 Copyright (c) Steve Scherf et al.
# Submitted via: DiscPlay 4.0.4
# 
DISCID=150ea913
DTITLE=Frankie Miller - The Very Best Of
DYEAR=1900
DGENRE=
TTITLE0=Darlin'
TTITLE1=When I'm Away From You
TTITLE2=Be Good To Yourself
TTITLE3=I Can't Change It
TTITLE4=Highlife - Brickyard Blues
TTITLE5=A Fool In Love
TTITLE6=Have You Seen Me Lately Joan?
TTITLE7=Love Letters
TTITLE8=Caledonia
TTITLE9=Stubborn Kind Of Fellow
TTITLE10=The Devil Gun
TTITLE11=Hard On The Levee
TTITLE12=Tears
TTITLE13=I'm Ready
TTITLE14=Shoo-rah Shoo-rah
TTITLE15=Double Heart Trouble
TTITLE16=So Young, So Young
TTITLE17=The Doodle Song
TTITLE18=To Dream The Dream
EXTD=
EXTT0=
EXTT1=
EXTT2=
EXTT3=
EXTT4=
EXTT5=
EXTT6=
EXTT7=
EXTT8=
EXTT9=
EXTT10=
EXTT11=
EXTT12=
EXTT13=
EXTT14=
EXTT15=
EXTT16=
EXTT17=
EXTT18=
PLAYORDER=
